<?xml version="1.0" encoding="UTF-8"?>
<!DOCTYPE svg PUBLIC "-//W3C//DTD SVG 1.1//EN" "http://www.w3.org/Graphics/SVG/1.1/DTD/svg11.dtd">
<!-- Creator: CorelDRAW -->
<svg xmlns="http://www.w3.org/2000/svg" xml:space="preserve" width="210mm" height="148mm" style="shape-rendering:geometricPrecision; text-rendering:geometricPrecision; image-rendering:optimizeQuality; fill-rule:evenodd; clip-rule:evenodd"
viewBox="0 0 210 148"
 xmlns:xlink="http://www.w3.org/1999/xlink">
 <defs>
  <style type="text/css">
   <![CDATA[
    .fil1 {fill:#2B6AA6;fill-rule:nonzero}
    .fil0 {fill:#D34455;fill-rule:nonzero}
   ]]>
  </style>
 </defs>
 <g id="Capa_x0020_1">
  <metadata id="CorelCorpID_0Corel-Layer"/>
  <path class="fil0" d="M4.6776 47.9002c-1.8621,-4.2159 -2.6192,-8.8648 -2.5219,-13.4536 3.5839,0.0108 7.1716,-0.0038 10.7547,0.008 -0.0571,5.7856 2.8425,11.6065 7.7882,14.7166 0.0172,-4.9068 -0.0026,-9.8134 0.009,-14.7192 3.8064,-0.0028 7.6129,-0.0028 11.4204,0 0,4.9148 -0.0083,9.8296 0.0054,14.7472 5.0012,-3.0756 7.8772,-8.9528 7.8543,-14.75 3.5895,0 7.1801,0.0054 10.7693,-0.0026 0.0801,5.8288 -1.1801,11.7743 -4.301,16.7554 -2.1508,3.4377 -5.0839,6.4483 -8.6217,8.4616 4.3577,-0.0254 8.7161,-0.0054 13.0735,-0.009 -0.0054,3.8073 -0.0028,7.6137 -0.0028,11.4212 -4.3121,0.0137 -8.624,-0.0309 -12.9371,0.0255 4.7351,2.7241 8.3599,7.1917 10.4616,12.2009 1.7195,4.0687 2.3448,8.5151 2.3386,12.908 -3.5924,-0.0108 -7.1855,0 -10.7748,-0.0025 0.0116,-5.8036 -2.8705,-11.669 -7.8628,-14.7619 -0.0079,4.9493 0,9.8949 -0.0054,14.8416 -3.809,-0.028 -7.6165,0.0111 -11.4237,-0.0172 0.0062,-4.9238 0.0062,-9.8497 0,-14.7737 -4.9521,3.0875 -7.8481,8.9366 -7.7874,14.7137 -3.5931,-0.0172 -7.1852,0.0147 -10.7784,-0.0144 -0.1063,-6.2367 1.3827,-12.6286 4.9776,-17.7976 2.0453,-2.956 4.6925,-5.5123 7.8,-7.3306 -4.3041,0.0255 -8.608,-0.0065 -12.9119,0.0136 -0.0054,-3.8075 0.0028,-7.6137 -0.0054,-11.423 4.3492,-0.0236 8.6986,0.0173 13.048,-0.0236 -4.6572,-2.5808 -8.2022,-6.9166 -10.3663,-11.7344z"/>
  <path class="fil1" d="M7.581 104.706l0.2515 0c0.185,-0.0018 0.3548,0.002 0.5048,0.0079 0.1498,0.008 0.2713,0.0299 0.3636,0.0634 0.0775,0.0437 0.1282,0.1031 0.1503,0.1824 0.0196,0.0793 0.024,0.1683 0.0065,0.2674 -0.0178,0.099 -0.044,0.1981 -0.0839,0.301 -0.0376,0.1012 -0.077,0.1964 -0.1192,0.2834 -0.0507,0.1032 -0.1101,0.21 -0.1762,0.3191 -0.0682,0.1088 -0.1457,0.212 -0.234,0.3129 -0.088,0.1011 -0.1914,0.1901 -0.3062,0.2715 -0.1652,0.0851 -0.3309,0.1425 -0.4917,0.1724 -0.1611,0.0296 -0.3173,0.0455 -0.4717,0.0473 -0.1568,0.0021 -0.3065,0.0041 -0.4519,0.0062l1.0581 -2.2349zm-3.4637 7.3105l1.6426 -3.4709c0.2226,-0.008 0.4454,-0.01 0.6701,-0.01 0.2252,0.002 0.4501,-0.0039 0.677,-0.0118 0.2273,-0.0101 0.4586,-0.0338 0.6902,-0.0734 0.2337,-0.0396 0.4717,-0.1029 0.7144,-0.1902 0.3175,-0.1129 0.6039,-0.2575 0.86,-0.4377 0.2555,-0.1804 0.4848,-0.3844 0.6878,-0.6083 0.2028,-0.2259 0.3811,-0.4596 0.5378,-0.7054 0.1544,-0.2455 0.2908,-0.4912 0.4076,-0.7328 0.1151,-0.2419 0.2098,-0.4777 0.2826,-0.7033 0.0702,-0.226 0.1078,-0.4439 0.1101,-0.6501 0.0021,-0.2079 -0.0419,-0.4019 -0.1322,-0.5844 -0.0883,-0.1644 -0.2229,-0.2972 -0.4058,-0.3962 -0.183,-0.0989 -0.3925,-0.1722 -0.6305,-0.2219 -0.2404,-0.0494 -0.4851,-0.081 -0.7388,-0.097 -0.2532,-0.0159 -0.4959,-0.0237 -0.7231,-0.0219l-2.7645 0 -4.2136 8.9153 2.3283 0zm6.0453 -2.4606c-0.2867,0.6101 -0.4012,1.1114 -0.3438,1.5077 0.0594,0.3943 0.2753,0.6874 0.6482,0.8796 0.3747,0.1922 0.8906,0.2872 1.5499,0.2872 0.5932,-0.0018 1.1243,-0.0713 1.5919,-0.2059 0.4676,-0.1348 0.8796,-0.3229 1.2347,-0.5646 0.3548,-0.2419 0.6636,-0.5252 0.9217,-0.85 0.2599,-0.3229 0.4782,-0.6736 0.6547,-1.054l3.0471 -6.4547 -2.3284 0 -3.1505 6.6688c-0.0463,0.097 -0.106,0.194 -0.1786,0.2952 -0.0728,0.099 -0.1588,0.1901 -0.2581,0.2753 -0.1014,0.0852 -0.2138,0.1526 -0.3394,0.2059 -0.1279,0.0517 -0.2669,0.0774 -0.419,0.0792 -0.2161,-0.0018 -0.3682,-0.0396 -0.4518,-0.1109 -0.0839,-0.0733 -0.1192,-0.1683 -0.1084,-0.2892 0.0134,-0.1189 0.0554,-0.2514 0.1282,-0.3963l3.177 -6.728 -2.326 0 -3.0494 6.4547zm11.7338 2.4606l0.8446 -1.783 -3.1618 0 0.9063 -1.9256 2.9102 0 0.8445 -1.7831 -2.9104 0 0.7849 -1.6405 3.003 0 0.8333 -1.7831 -5.3312 0 -4.2133 8.9153 5.4899 0zm5.2254 -3.8039c0.2445,0.006 0.465,0.016 0.6593,0.0337 0.1961,0.016 0.3526,0.0536 0.4696,0.1151 0.1169,0.0612 0.1807,0.1624 0.1915,0.3031 0.0113,0.1405 -0.044,0.3387 -0.1652,0.5942 -0.1101,0.2378 -0.2229,0.4321 -0.3307,0.5785 -0.1104,0.1487 -0.2249,0.2617 -0.3463,0.3389 -0.121,0.0792 -0.2535,0.1346 -0.3989,0.1662 -0.1454,0.0299 -0.3088,0.0497 -0.4918,0.0556 -0.1829,0.0059 -0.3903,0.0118 -0.624,0.0139l1.0365 -2.1992zm1.6645 -3.5066c0.2074,-0.0018 0.3968,0 0.5733,0.0079 0.1763,0.008 0.3196,0.0358 0.4344,0.0832 0.1122,0.0496 0.1806,0.1309 0.2027,0.2498 0.0222,0.1169 -0.0154,0.2852 -0.1145,0.5031 -0.1235,0.2615 -0.2491,0.4617 -0.3772,0.6022 -0.1277,0.1428 -0.2666,0.2419 -0.4166,0.3013 -0.1521,0.0595 -0.3243,0.097 -0.5204,0.113 -0.1963,0.0157 -0.4233,0.0296 -0.6834,0.0414l0.9017 -1.9019zm-2.5114 7.3105c0.6328,0.0021 1.2172,-0.0872 1.753,-0.2673 0.5378,-0.1804 1.0165,-0.4596 1.4354,-0.8402 0.421,-0.3804 0.7738,-0.8716 1.0605,-1.472 0.1322,-0.2753 0.2292,-0.5152 0.2907,-0.721 0.0621,-0.2082 0.0839,-0.3925 0.0662,-0.5528 -0.0175,-0.1605 -0.077,-0.309 -0.1807,-0.4457 -0.1037,-0.1369 -0.2558,-0.2735 -0.4542,-0.4081l0.0199 -0.0239c0.3283,-0.1328 0.6217,-0.2952 0.8775,-0.4874 0.2557,-0.1922 0.476,-0.4061 0.6636,-0.6418 0.185,-0.2357 0.3394,-0.4853 0.463,-0.7488 0.2094,-0.4478 0.3044,-0.8204 0.2866,-1.1174 -0.0198,-0.2993 -0.1299,-0.535 -0.3327,-0.7094 -0.2007,-0.1743 -0.474,-0.297 -0.8204,-0.3724 -0.3438,-0.0733 -0.7365,-0.1089 -1.1796,-0.1071l-3.0159 0 -4.2136 8.9153 3.2807 0zm9.1544 0l0.8443 -1.783 -2.844 0 3.369 -7.1323 -2.3284 0 -4.2135 8.9153 5.1726 0zm5.9881 -2.6626c-0.0638,0.1307 -0.1364,0.2694 -0.2226,0.4141 -0.0836,0.1466 -0.1832,0.2833 -0.2954,0.414 -0.1148,0.1287 -0.2447,0.2357 -0.3927,0.317 -0.1454,0.0811 -0.3129,0.1248 -0.5026,0.1266 -0.1852,-0.0018 -0.3152,-0.0455 -0.3903,-0.1266 -0.0747,-0.0813 -0.1122,-0.1883 -0.1079,-0.317 0.0044,-0.1307 0.0309,-0.2674 0.0816,-0.414 0.0507,-0.1447 0.1104,-0.2834 0.1766,-0.4141l1.7261 -3.6613c0.0639,-0.1387 0.139,-0.2792 0.2249,-0.4179 0.0863,-0.1408 0.1853,-0.2695 0.2978,-0.3883 0.1145,-0.1169 0.2424,-0.2121 0.3901,-0.2834 0.1454,-0.0733 0.3109,-0.1088 0.4938,-0.1109 0.1897,0.0021 0.3243,0.0376 0.3991,0.1109 0.0772,0.0713 0.1148,0.1665 0.1102,0.2834 -0.0044,0.1188 -0.0306,0.2475 -0.0837,0.3883 -0.0506,0.1387 -0.1101,0.2792 -0.1785,0.4179l-1.7265 3.6613zm4.1274 -3.8039c0.2668,-0.5725 0.3726,-1.0558 0.3196,-1.4521 -0.0528,-0.3942 -0.2622,-0.6956 -0.6302,-0.9014 -0.3706,-0.2041 -0.893,-0.3073 -1.5723,-0.3091 -0.6814,0.0018 -1.3073,0.105 -1.876,0.3091 -0.5692,0.2058 -1.0695,0.5072 -1.4995,0.9014 -0.4323,0.3963 -0.7828,0.8796 -1.0517,1.4521l-1.7174 3.6256c-0.2404,0.5031 -0.3945,0.9449 -0.463,1.3252 -0.0684,0.3806 -0.0398,0.6995 0.0857,0.955 0.1259,0.2576 0.3595,0.4498 0.7059,0.5805 0.3438,0.1287 0.8088,0.1941 1.3955,0.1941 0.5865,0 1.1132,-0.0654 1.5764,-0.1941 0.4632,-0.1307 0.8775,-0.3229 1.2435,-0.5805 0.3636,-0.2555 0.6901,-0.5744 0.9789,-0.955 0.2889,-0.3803 0.5512,-0.8221 0.7871,-1.3252l1.7175 -3.6256zm7.4719 -2.4488l-2.3546 0 -0.0994 5.1709 -1.7727 3.7444 2.3283 0 1.7728 -3.7444 4.835 -5.1709 -2.3281 0 -2.5687 2.9125 -0.0265 0 0.2139 -2.9125zm10.2961 1.6048c0.2843,-0.0078 0.527,-0.0059 0.7254,0.01 0.1964,0.0157 0.3441,0.0574 0.4431,0.1248 0.0994,0.0674 0.1454,0.1783 0.1369,0.3289 -0.009,0.1505 -0.0751,0.3566 -0.2007,0.6181 -0.062,0.1387 -0.1346,0.2733 -0.2182,0.404 -0.0859,0.131 -0.183,0.2478 -0.2934,0.3528 -0.1101,0.1071 -0.2359,0.1902 -0.3749,0.2535 -0.1366,0.0615 -0.2908,0.0931 -0.4583,0.0952l-0.7939 0 1.034 -2.1873zm-1.797 3.792l0.7677 0c0.1716,0.0119 0.2931,0.0574 0.3636,0.1367 0.0705,0.0792 0.1037,0.1881 0.0947,0.3229 -0.0088,0.1367 -0.0463,0.2972 -0.1125,0.4794 -0.0661,0.1822 -0.1521,0.3845 -0.2535,0.6042 -0.1013,0.2201 -0.2115,0.4537 -0.3286,0.7015 -0.1168,0.2455 -0.2316,0.5011 -0.3438,0.7628 -0.0332,0.089 -0.0597,0.1762 -0.0751,0.2594 -0.0154,0.0851 -0.0262,0.1685 -0.0329,0.2516l2.5398 0 0.0551 -0.1189c-0.0286,-0.0417 -0.0484,-0.089 -0.0594,-0.1407 -0.0111,-0.0533 -0.0155,-0.1089 -0.0134,-0.1683 0.0288,-0.1168 0.0751,-0.2635 0.1413,-0.4437 0.0661,-0.1783 0.1433,-0.3764 0.2313,-0.5885 0.0883,-0.2141 0.1788,-0.43 0.2712,-0.6497 0.0927,-0.2201 0.1807,-0.4262 0.2646,-0.6241 0.0818,-0.1963 0.152,-0.3667 0.2074,-0.5113 0.0836,-0.2059 0.1122,-0.3883 0.0859,-0.5448 -0.0265,-0.1564 -0.0993,-0.2851 -0.2182,-0.3883 -0.1168,-0.1029 -0.2735,-0.1763 -0.4673,-0.2197l0.0064 -0.024c0.3858,-0.1346 0.7144,-0.299 0.9856,-0.4953 0.2712,-0.1961 0.5005,-0.4218 0.6922,-0.6776 0.1917,-0.2555 0.3616,-0.5427 0.5093,-0.8597 0.2779,-0.5883 0.3991,-1.0639 0.3572,-1.4244 -0.0394,-0.3626 -0.2337,-0.6261 -0.5775,-0.7926 -0.3464,-0.1644 -0.8381,-0.2455 -1.473,-0.2437l-3.3996 0 -4.2135 8.9153 2.3283 0 1.6667 -3.5185zm8.903 3.5185l0.8445 -1.783 -3.1618 0 0.9063 -1.9256 2.9102 0 0.8446 -1.7831 -2.9105 0 0.7849 -1.6405 3.0031 0 0.8332 -1.7831 -5.3312 0 -4.2133 8.9153 5.49 0zm3.492 0l1.7774 -3.7681 2.897 0 0.8464 -1.783 -2.8968 0 0.7563 -1.5811 3.1485 0 0.8332 -1.7831 -5.4768 0 -4.2133 8.9153 2.3281 0zm9.4145 -2.6626c-0.0638,0.1307 -0.1367,0.2694 -0.2229,0.4141 -0.0836,0.1466 -0.1829,0.2833 -0.2951,0.414 -0.1148,0.1287 -0.245,0.2357 -0.3927,0.317 -0.1454,0.0811 -0.3129,0.1248 -0.5026,0.1266 -0.1853,-0.0018 -0.3152,-0.0455 -0.3904,-0.1266 -0.0746,-0.0813 -0.1122,-0.1883 -0.1078,-0.317 0.0041,-0.1307 0.0309,-0.2674 0.0816,-0.414 0.0507,-0.1447 0.1101,-0.2834 0.1763,-0.4141l1.7264 -3.6613c0.0638,-0.1387 0.1387,-0.2792 0.2247,-0.4179 0.0862,-0.1408 0.1852,-0.2695 0.2979,-0.3883 0.1146,-0.1169 0.2422,-0.2121 0.3899,-0.2834 0.1457,-0.0733 0.3111,-0.1088 0.4941,-0.1109 0.1896,0.0021 0.3242,0.0376 0.3988,0.1109 0.0775,0.0713 0.1151,0.1665 0.1104,0.2834 -0.0043,0.1188 -0.0306,0.2475 -0.0836,0.3883 -0.0507,0.1387 -0.1104,0.2792 -0.1788,0.4179l-1.7262 3.6613zm4.1273 -3.8039c0.2669,-0.5725 0.3726,-1.0558 0.3196,-1.4521 -0.0527,-0.3942 -0.2624,-0.6956 -0.6304,-0.9014 -0.3706,-0.2041 -0.893,-0.3073 -1.5721,-0.3091 -0.6814,0.0018 -1.3075,0.105 -1.8762,0.3091 -0.5689,0.2058 -1.0692,0.5072 -1.4995,0.9014 -0.432,0.3963 -0.7825,0.8796 -1.0514,1.4521l-1.7175 3.6256c-0.2403,0.5031 -0.3947,0.9449 -0.4631,1.3252 -0.0685,0.3806 -0.0397,0.6995 0.0859,0.955 0.1258,0.2576 0.3595,0.4498 0.7056,0.5805 0.3441,0.1287 0.8091,0.1941 1.3955,0.1941 0.5865,0 1.1135,-0.0654 1.5767,-0.1941 0.4629,-0.1307 0.8775,-0.3229 1.2434,-0.5805 0.3636,-0.2555 0.6902,-0.5744 0.9789,-0.955 0.2887,-0.3803 0.5512,-0.8221 0.7872,-1.3252l1.7174 -3.6256zm3.7988 -0.844c0.2843,-0.0078 0.527,-0.0059 0.7254,0.01 0.1961,0.0157 0.344,0.0574 0.4431,0.1248 0.0993,0.0674 0.1454,0.1783 0.1369,0.3289 -0.009,0.1505 -0.0751,0.3566 -0.201,0.6181 -0.0617,0.1387 -0.1345,0.2733 -0.2182,0.404 -0.0857,0.131 -0.1829,0.2478 -0.2931,0.3528 -0.1104,0.1071 -0.2359,0.1902 -0.3749,0.2535 -0.1367,0.0615 -0.2911,0.0931 -0.4586,0.0952l-0.7938 0 1.0342 -2.1873zm-1.797 3.792l0.7674 0c0.1719,0.0119 0.2933,0.0574 0.3639,0.1367 0.0702,0.0792 0.1037,0.1881 0.0947,0.3229 -0.0088,0.1367 -0.0464,0.2972 -0.1125,0.4794 -0.0661,0.1822 -0.1521,0.3845 -0.2535,0.6042 -0.1014,0.2201 -0.2118,0.4537 -0.3286,0.7015 -0.1168,0.2455 -0.2316,0.5011 -0.3438,0.7628 -0.0332,0.089 -0.0597,0.1762 -0.0751,0.2594 -0.0155,0.0851 -0.0263,0.1685 -0.033,0.2516l2.5399 0 0.0551 -0.1189c-0.0286,-0.0417 -0.0484,-0.089 -0.0597,-0.1407 -0.0108,-0.0533 -0.0155,-0.1089 -0.0131,-0.1683 0.0288,-0.1168 0.0751,-0.2635 0.1412,-0.4437 0.0662,-0.1783 0.1431,-0.3764 0.2314,-0.5885 0.0882,-0.2141 0.1788,-0.43 0.2712,-0.6497 0.0924,-0.2201 0.1806,-0.4262 0.2645,-0.6241 0.0816,-0.1963 0.1521,-0.3667 0.2074,-0.5113 0.0837,-0.2059 0.1122,-0.3883 0.086,-0.5448 -0.0268,-0.1564 -0.0993,-0.2851 -0.2182,-0.3883 -0.1169,-0.1029 -0.2736,-0.1763 -0.4673,-0.2197l0.0064 -0.024c0.3857,-0.1346 0.7143,-0.299 0.9856,-0.4953 0.2712,-0.1961 0.5005,-0.4218 0.6919,-0.6776 0.192,-0.2555 0.3619,-0.5427 0.5096,-0.8597 0.2779,-0.5883 0.3991,-1.0639 0.3571,-1.4244 -0.0396,-0.3626 -0.2336,-0.6261 -0.5777,-0.7926 -0.3461,-0.1644 -0.8378,-0.2455 -1.4727,-0.2437l-3.3996 0 -4.2136 8.9153 2.3284 0 1.6667 -3.5185zm5.6618 3.5185l3.0955 -6.9894 0.0265 0 -1.7066 6.9894 1.7331 0 4.9475 -6.9894 0.0265 0 -3.5455 6.9894 2.2225 0 4.2133 -8.9153 -3.2542 0 -3.7326 5.2661 -0.0265 0 1.2854 -5.2661 -3.2807 0 -4.2134 8.9153 2.2092 0zm9.895 0l1.098 -1.7354 1.8258 0 -0.4897 1.7354 2.3548 0 2.0572 -8.9153 -2.8047 0 -6.3826 8.9153 2.3412 0zm3.4418 -3.3046l-1.3494 0 2.5707 -3.9941 0.0265 0 -1.2478 3.9941z"/>
  <path class="fil1" d="M80.193 45.2435l1.7517 0c1.291,-0.0139 2.4894,0.0136 3.5653,0.0551 1.0757,0.0553 2.0134,0.2071 2.797,0.4421 0.6914,0.3036 1.2293,0.7179 1.6443,1.2704 0.4148,0.5523 0.7069,1.1737 0.9221,1.8641 0.1999,0.6905 0.3226,1.3809 0.3996,2.0991 0.0615,0.7043 0.0921,1.3669 0.0769,1.9748 0,0.7179 -0.046,1.4637 -0.1539,2.2231 -0.1075,0.7596 -0.3072,1.4776 -0.6147,2.1819 -0.2918,0.7043 -0.7067,1.3258 -1.2602,1.8919 -0.8605,0.5937 -1.8131,0.9941 -2.8427,1.2012 -1.0144,0.2072 -2.0595,0.3178 -3.1354,0.3315 -1.0756,0.0139 -2.1204,0.0278 -3.15,0.0414l0 -15.5766zm0 50.9557l0 -24.1936c1.5211,-0.0554 3.0733,-0.069 4.6256,-0.069 1.5676,0.0136 3.1194,-0.0278 4.6716,-0.0829 1.5522,-0.0692 3.0893,-0.2349 4.5952,-0.511 1.5061,-0.2761 2.9505,-0.718 4.3643,-1.3255 1.8289,-0.7872 3.3502,-1.7955 4.5335,-3.052 1.1989,-1.2566 2.1209,-2.6788 2.7969,-4.2393 0.6763,-1.5744 1.1374,-3.2038 1.414,-4.9161 0.2612,-1.7123 0.3994,-3.4248 0.384,-5.1093 0.0154,-1.6848 -0.0921,-3.3281 -0.3379,-4.9025 -0.2306,-1.5741 -0.6763,-3.0931 -1.3217,-4.5293 -0.661,-1.45 -1.6137,-2.8033 -2.8584,-4.0735 -1.1526,-1.1465 -2.5203,-2.0716 -4.1186,-2.762 -1.5983,-0.6904 -3.3193,-1.2015 -5.1328,-1.5466 -1.8288,-0.3453 -3.642,-0.5661 -5.4708,-0.6767 -1.8135,-0.1104 -3.5193,-0.1658 -5.1022,-0.1519l-19.2711 0 0 62.1412 16.2284 0zm45.4578 -46.3989l-14.7531 0 10.2349 41.9385c0.1999,0.7319 0.415,1.5744 0.6762,2.5134 0.2615,0.9526 0.4766,1.8916 0.6763,2.8307 0.1997,0.939 0.2918,1.7815 0.3075,2.5133 -0.0311,0.6076 -0.2923,1.1047 -0.7995,1.4637 -0.507,0.3729 -1.1063,0.6354 -1.7826,0.7733 -0.6762,0.1382 -1.2908,0.1657 -1.844,0.0829 -0.4612,-0.0829 -0.9375,-0.1519 -1.4292,-0.1933 -0.4918,-0.0553 -0.9681,-0.0967 -1.429,-0.1382l0 9.7771c0.7221,0.0137 1.552,0.0829 2.4894,0.2072 0.9372,0.1243 2.0438,0.1932 3.3194,0.2069 2.6587,0 4.9176,-0.2623 6.7771,-0.787 1.8443,-0.511 3.3965,-1.2568 4.6258,-2.2094 1.2295,-0.9668 2.2591,-2.113 3.0584,-3.4663 0.799,-1.3394 1.4598,-2.8445 2.0131,-4.5018 0.553,-1.6569 1.0602,-3.4521 1.5519,-5.3579 0.4766,-1.9194 1.0145,-3.9217 1.6138,-6.0344l9.3128 -39.6187 -14.3843 0 -5.0713 29.9522 -0.1842 0 -4.9794 -29.9522zm45.7344 -4.5568c1.9825,-0.0553 3.6883,-0.0414 5.1173,0.069 1.4295,0.1104 2.6127,0.4004 3.5347,0.87 0.9069,0.4694 1.5983,1.2427 2.0286,2.2923 0.4459,1.0494 0.6608,2.4856 0.6608,4.3085 0.0152,0.9666 -0.0767,1.9056 -0.246,2.8171 -0.1688,0.9112 -0.4609,1.7261 -0.8912,2.458 -0.4302,0.7455 -1.0144,1.3255 -1.7825,1.7676 -0.7532,0.428 -1.7213,0.649 -2.8893,0.6626l-5.5324 0 0 -15.2451zm0 26.4306l5.3479 0c1.2449,0.0829 2.2593,0.4004 3.012,0.9529 0.7533,0.5523 1.3371,1.3119 1.7213,2.2509 0.3842,0.9529 0.6609,2.0713 0.7993,3.3417 0.1536,1.2705 0.2306,2.6791 0.246,4.2118 0.0152,1.5329 0.0152,3.1623 0.0152,4.8885 -0.0152,1.7123 0.0309,3.4938 0.1076,5.3165 0.046,0.6215 0.1536,1.229 0.3227,1.8091 0.169,0.5936 0.369,1.1736 0.5993,1.7537l17.7037 0 0 -0.8286c-0.3688,-0.29 -0.676,-0.6215 -0.922,-0.9805 -0.2458,-0.3728 -0.4612,-0.7594 -0.6457,-1.1737 -0.1845,-0.8147 -0.3379,-1.8365 -0.4606,-3.0934 -0.1233,-1.2426 -0.2306,-2.6235 -0.323,-4.1011 -0.0921,-1.4915 -0.169,-2.9966 -0.2305,-4.5295 -0.077,-1.5327 -0.1537,-2.9689 -0.2152,-4.3497 -0.0769,-1.3672 -0.1536,-2.5548 -0.2457,-3.5628 -0.1078,-1.4362 -0.5072,-2.7066 -1.1989,-3.7977 -0.6915,-1.0908 -1.6289,-1.9884 -2.797,-2.7066 -1.1677,-0.718 -2.5048,-1.229 -4.0262,-1.5327l0 -0.1657c2.2589,-0.939 4.0111,-2.0852 5.256,-3.4524 1.2445,-1.3669 2.1204,-2.9413 2.6122,-4.7225 0.4918,-1.7816 0.7223,-3.7839 0.7072,-5.9933 0,-4.1014 -0.7378,-7.4156 -2.2131,-9.9287 -1.4753,-2.5272 -3.6883,-4.3638 -6.6389,-5.5239 -2.9506,-1.1461 -6.6389,-1.7123 -11.0648,-1.6984l-23.6972 0 0 62.1412 16.2284 0 0 -24.5251z"/>
  <path class="fil0" d="M140.351 107.892l0 -4.6855 2.0736 0 0 5.4436c0,0.8237 0.0522,1.335 0.1544,1.5298 0.1042,0.1948 0.2874,0.2931 0.5517,0.2931 0.2661,0 0.4496,-0.1021 0.5517,-0.3047 0.1022,-0.2025 0.1524,-0.7079 0.1524,-1.5182l0 -5.4436 2.0121 0 0 5.5555c0,0.6289 -0.0271,1.0996 -0.0811,1.4102 -0.0561,0.3106 -0.1446,0.5806 -0.2681,0.8101 -0.2064,0.3917 -0.5054,0.6791 -0.8971,0.8623 -0.3896,0.1832 -0.8989,0.2741 -1.5278,0.2741 -0.5826,0 -1.0592,-0.0849 -1.4256,-0.2566 -0.3685,-0.1719 -0.6598,-0.4457 -0.8757,-0.8237 -0.1544,-0.2663 -0.2643,-0.6096 -0.326,-1.0283 -0.0636,-0.4187 -0.0945,-1.1246 -0.0945,-2.1181zm6.3407 -2.9959l0 -1.6896 5.386 0 0 1.6896 -1.719 0 0 7.0141 -2.0332 0 0 -7.0141 -1.6338 0zm6.2115 7.0141l0 -8.7037 2.1026 0 1.6917 5.3684c-0.0694,-0.9027 -0.1196,-1.6839 -0.1505,-2.3399 -0.0327,-0.6539 -0.0481,-1.2094 -0.0481,-1.6611l0 -1.3674 1.8131 0 0 8.7037 -2.1237 0 -1.7015 -5.5324c0.0754,0.7195 0.1312,1.4177 0.1716,2.0929 0.0386,0.6771 0.0579,1.333 0.0579,1.9696l0 1.4699 -1.8131 0zm9.9384 0l0 -8.7037 2.28 0c0.7465,0 1.2887,0.0345 1.6263,0.1039 0.3376,0.0695 0.6114,0.1892 0.8217,0.359 0.247,0.2043 0.432,0.4552 0.5538,0.7522 0.1214,0.2972 0.1832,0.6521 0.1832,1.061 0,0.5015 -0.0849,0.922 -0.2566,1.2596 -0.1716,0.3397 -0.438,0.6174 -0.8005,0.8353 0.6307,0.2797 0.9606,0.9413 0.9953,1.983 0,0.0155 0,0.0252 0,0.0291 0.0039,0.1099 0.0077,0.2681 0.0116,0.4745 0.0154,0.982 0.1776,1.5973 0.4861,1.8461l-2.3806 0c-0.052,-0.1814 -0.0906,-0.3703 -0.1155,-0.5689 -0.0232,-0.1989 -0.0368,-0.411 -0.0368,-0.6367 0,-0.1407 0.0038,-0.3088 0.0116,-0.5074 0.0077,-0.1987 0.0115,-0.3279 0.0115,-0.3878 0,-0.5322 -0.0694,-0.8968 -0.2081,-1.0916 -0.1411,-0.1969 -0.3917,-0.2952 -0.7525,-0.2952l-0.4187 0 0 3.4876 -2.0118 0zm2.0118 -5.081c0.0348,0 0.0793,0.0018 0.1333,0.0057 0.0538,0.0038 0.0945,0.0059 0.1215,0.0059 0.4225,0 0.7195,-0.0849 0.895,-0.2548 0.1755,-0.1698 0.2643,-0.4552 0.2643,-0.8584 0,-0.3742 -0.0888,-0.6385 -0.2643,-0.7947 -0.1755,-0.1562 -0.4725,-0.2354 -0.895,-0.2354 -0.027,0 -0.0677,0.002 -0.1215,0.0059 -0.054,0.0038 -0.0985,0.0056 -0.1333,0.0056l0 2.1202zm4.595 0.729c0,-1.0473 0.0386,-1.8113 0.114,-2.2936 0.0751,-0.4822 0.1986,-0.8602 0.3723,-1.1304 0.2489,-0.3837 0.5746,-0.6694 0.9779,-0.8564 0.4032,-0.1871 0.8875,-0.2798 1.4526,-0.2798 0.5672,0 1.0494,0.0927 1.4467,0.2798 0.3974,0.187 0.7195,0.4727 0.9684,0.8564 0.1796,0.274 0.3088,0.6541 0.3839,1.1363 0.0752,0.4823 0.112,1.2442 0.112,2.2877 0,1.0399 -0.0368,1.8019 -0.112,2.2859 -0.0751,0.4843 -0.2043,0.8644 -0.3839,1.1382 -0.245,0.3801 -0.5672,0.6655 -0.9684,0.8546 -0.4011,0.1871 -0.8834,0.2818 -1.4467,0.2818 -0.5651,0 -1.0494,-0.0947 -1.4526,-0.2818 -0.4033,-0.1891 -0.729,-0.4745 -0.9779,-0.8546 -0.1737,-0.2699 -0.2972,-0.6482 -0.3723,-1.1305 -0.0754,-0.4822 -0.114,-1.246 -0.114,-2.2936zm2.0738 0.7851c0,0.9414 0.0597,1.5317 0.1814,1.771 0.1194,0.2391 0.3415,0.3587 0.6616,0.3587 0.3163,0 0.5363,-0.1176 0.656,-0.351 0.1214,-0.2334 0.1811,-0.8257 0.1811,-1.7787l0 -1.5702c0,-0.9645 -0.0617,-1.5605 -0.1832,-1.7882 -0.1235,-0.2275 -0.3453,-0.3415 -0.6655,-0.3415 -0.3124,0 -0.5306,0.1179 -0.65,0.3513 -0.1217,0.2334 -0.1814,0.8255 -0.1814,1.7784l0 1.5702zm4.7146 1.1035c0,-0.0579 0,-0.1197 0.0018,-0.1832 0.0021,-0.0636 0.0098,-0.164 0.0214,-0.3029l1.8306 0 0 0.2565c0,0.4843 0.0559,0.8238 0.1678,1.0224 0.1119,0.1987 0.3008,0.2972 0.5672,0.2972 0.2159,0 0.3878,-0.0753 0.5131,-0.2238 0.1253,-0.1506 0.1889,-0.3531 0.1889,-0.6115 0,-0.4243 -0.3065,-0.8296 -0.92,-1.221 -0.0986,-0.0677 -0.1755,-0.1179 -0.2277,-0.1526 -0.0193,-0.0116 -0.0502,-0.0327 -0.0945,-0.0618 -0.8005,-0.5535 -1.2982,-0.9701 -1.493,-1.2498 -0.141,-0.2123 -0.2471,-0.4514 -0.3222,-0.7157 -0.0733,-0.2642 -0.1101,-0.5537 -0.1101,-0.8682 0,-0.7599 0.2161,-1.3541 0.6502,-1.7861 0.4339,-0.4321 1.0319,-0.6483 1.7921,-0.6483 0.8641,0 1.5239,0.2123 1.9812,0.6367 0.4552,0.4243 0.6827,1.0378 0.6827,1.8422 0,0.0348 -0.0018,0.0829 -0.0057,0.1446 -0.0038,0.0618 -0.0059,0.1099 -0.0059,0.1447l-1.8924 0 0 -0.1081c0,-0.3837 -0.0597,-0.675 -0.1812,-0.8719 -0.1196,-0.1986 -0.2933,-0.2969 -0.5208,-0.2969 -0.1948,0 -0.3513,0.0692 -0.4689,0.2064 -0.1176,0.1387 -0.1775,0.3221 -0.1775,0.5478 0,0.3721 0.3358,0.7658 1.0051,1.1825 0.1215,0.079 0.2162,0.1389 0.2797,0.1814 0.0541,0.0309 0.1313,0.0769 0.2278,0.1425 0.7367,0.4535 1.2094,0.8353 1.4158,1.1459 0.1292,0.2008 0.2275,0.4282 0.2952,0.6848 0.0674,0.2548 0.1021,0.5324 0.1021,0.8314 0,0.8662 -0.2334,1.5338 -0.6984,2.0024 -0.4647,0.4688 -1.1284,0.7043 -1.9925,0.7043 -0.87,0 -1.5221,-0.2239 -1.958,-0.6714 -0.4359,-0.4496 -0.6539,-1.115 -0.6539,-2.0005zm5.7061 2.4634l1.8983 -8.7037 2.4189 0 1.877 8.7037 -2.0352 0 -0.2545 -1.6569 -1.5993 0 -0.2527 1.6569 -2.0525 0zm2.5157 -3.2388l1.1688 0 -0.5826 -3.7984 -0.5862 3.7984zm4.4752 3.2388l0 -8.7037 2.28 0c0.7465,0 1.2887,0.0345 1.6263,0.1039 0.3377,0.0695 0.6115,0.1892 0.8217,0.359 0.247,0.2043 0.4321,0.4552 0.5538,0.7522 0.1214,0.2972 0.1832,0.6521 0.1832,1.061 0,0.5015 -0.0849,0.922 -0.2566,1.2596 -0.1716,0.3397 -0.4379,0.6174 -0.8005,0.8353 0.6307,0.2797 0.9606,0.9413 0.9953,1.983 0,0.0155 0,0.0252 0,0.0291 0.0039,0.1099 0.0078,0.2681 0.0116,0.4745 0.0155,0.982 0.1776,1.5973 0.4861,1.8461l-2.3806 0c-0.0519,-0.1814 -0.0905,-0.3703 -0.1155,-0.5689 -0.0232,-0.1989 -0.0368,-0.411 -0.0368,-0.6367 0,-0.1407 0.0039,-0.3088 0.0116,-0.5074 0.0077,-0.1987 0.0116,-0.3279 0.0116,-0.3878 0,-0.5322 -0.0695,-0.8968 -0.2082,-1.0916 -0.141,-0.1969 -0.3917,-0.2952 -0.7525,-0.2952l-0.4186 0 0 3.4876 -2.0119 0zm2.0119 -5.081c0.0347,0 0.0792,0.0018 0.1333,0.0057 0.0537,0.0038 0.0944,0.0059 0.1214,0.0059 0.4226,0 0.7195,-0.0849 0.895,-0.2548 0.1755,-0.1698 0.2643,-0.4552 0.2643,-0.8584 0,-0.3742 -0.0888,-0.6385 -0.2643,-0.7947 -0.1755,-0.1562 -0.4724,-0.2354 -0.895,-0.2354 -0.027,0 -0.0677,0.002 -0.1214,0.0059 -0.0541,0.0038 -0.0986,0.0056 -0.1333,0.0056l0 2.1202zm4.7706 5.081l0 -8.7037 2.0332 0 0 8.7037 -2.0332 0zm3.2715 -4.352c0,-1.0473 0.0386,-1.8113 0.114,-2.2936 0.0751,-0.4822 0.1987,-0.8602 0.3724,-1.1304 0.2488,-0.3837 0.5746,-0.6694 0.9778,-0.8564 0.4033,-0.1871 0.8876,-0.2798 1.4527,-0.2798 0.5671,0 1.0494,0.0927 1.4467,0.2798 0.3973,0.187 0.7195,0.4727 0.9683,0.8564 0.1796,0.274 0.3088,0.6541 0.384,1.1363 0.0751,0.4823 0.1119,1.2442 0.1119,2.2877 0,1.0399 -0.0368,1.8019 -0.1119,2.2859 -0.0752,0.4843 -0.2044,0.8644 -0.384,1.1382 -0.2449,0.3801 -0.5671,0.6655 -0.9683,0.8546 -0.4012,0.1871 -0.8834,0.2818 -1.4467,0.2818 -0.5651,0 -1.0494,-0.0947 -1.4527,-0.2818 -0.4032,-0.1891 -0.729,-0.4745 -0.9778,-0.8546 -0.1737,-0.2699 -0.2973,-0.6482 -0.3724,-1.1305 -0.0754,-0.4822 -0.114,-1.246 -0.114,-2.2936zm2.0738 0.7851c0,0.9414 0.0597,1.5317 0.1815,1.771 0.1194,0.2391 0.3414,0.3587 0.6616,0.3587 0.3162,0 0.5362,-0.1176 0.6559,-0.351 0.1215,-0.2334 0.1812,-0.8257 0.1812,-1.7787l0 -1.5702c0,-0.9645 -0.0618,-1.5605 -0.1833,-1.7882 -0.1235,-0.2275 -0.3453,-0.3415 -0.6654,-0.3415 -0.3124,0 -0.5306,0.1179 -0.65,0.3513 -0.1218,0.2334 -0.1815,0.8255 -0.1815,1.7784l0 1.5702z"/>
 </g>
</svg>
